# xmcd
#
# Track frame offsets: 
#        150
#        13768
#        28513
#        46087
#        58134
#        73235
#        90299
#        102977
#        114584
#        131948
#        145512
#        159561
#
# Disc length: 2301 seconds
#
# Revision: 0
# Processed by: cddbd v1.5.2PL0 Copyright (c) Steve Scherf et al.
# Submitted via: ExactAudioCopy v0.95b4
#
DISCID=a008fb0c
DTITLE=Le Roi Brothers - Protection From Enemies
DYEAR=1985
DGENRE=Blues
TTITLE0=Lucky, Lucky Me
TTITLE1=Pow
TTITLE2=Elvis In The Army
TTITLE3=I Don't Wanna Stop
TTITLE4=Walk With Me Darling
TTITLE5=Give Up The Ghost
TTITLE6=Fight Fire With Fire
TTITLE7=The Back Door
TTITLE8=Dangerous Girl
TTITLE9=Darlene, Darlene
TTITLE10=Little Bit Of Sugar
TTITLE11=Move It
EXTD=
EXTT0=
EXTT1=
EXTT2=
EXTT3=
EXTT4=
EXTT5=
EXTT6=
EXTT7=
EXTT8=
EXTT9=
EXTT10=
EXTT11=
PLAYORDER=
